<svg xmlns="http://www.w3.org/2000/svg" version="1.1" xmlns:xlink="http://www.w3.org/1999/xlink" xmlns:svgjs="http://svgjs.dev/svgjs" width="1000" height="1000" viewBox="0 0 1000 1000"><rect width="1000" height="1000" fill="#ffffff"></rect><g transform="matrix(0.7,0,0,0.7,150,150)"><svg viewBox="0 0 280 280" data-background-color="#ffffff" preserveAspectRatio="xMidYMid meet" height="1000" width="1000" xmlns="http://www.w3.org/2000/svg" xmlns:xlink="http://www.w3.org/1999/xlink"><g id="tight-bounds" transform="matrix(1,0,0,1,0,0)"><svg viewBox="0 0 280 280" height="280" width="280"><g><svg viewBox="0 0 280 280" height="280" width="280"><g><svg viewBox="0 0 280 280" height="280" width="280"><g id="textblocktransform"><svg viewBox="0 0 280 280" height="280" width="280" id="textblock"><g><svg viewBox="0 0 280 280" height="280" width="280"><g transform="matrix(1,0,0,1,57.50420886156945,57.50420886156945)"><svg viewBox="0 0 164.9915822768611 164.9915822768611" height="164.9915822768611" width="164.9915822768611"><g><circle r="82" cx="82.49579113843055" cy="82.49579113843055" fill="#1c4b82" data-fill-palette-color="accent"></circle><svg xmlns="http://www.w3.org/2000/svg" xmlns:xlink="http://www.w3.org/1999/xlink" version="1.1" x="24.748737341529164" y="24.74873734152917" viewBox="2 2 60.00074768066406 60" style="enable-background:new 0 0 64 64;" xml:space="preserve" height="115.49410759380275" width="115.49410759380275" class="icon-o-0" data-fill-palette-color="quaternary" id="o-0"><rect x="45" y="30" width="2" height="2" fill="#ffffff" data-fill-palette-color="quaternary"></rect><rect x="41" y="30" width="2" height="2" fill="#ffffff" data-fill-palette-color="quaternary"></rect><rect x="37" y="30" width="2" height="2" fill="#ffffff" data-fill-palette-color="quaternary"></rect><path d="M62 13v-2H50h-8V9c0-3.859-3.141-7-7-7h-6c-3.859 0-7 3.141-7 7v2h-8c-0.553 0-1 0.447-1 1v19c0 0.633 0.13 1.234 0.346 1.792L2.75 35.532C2.309 35.646 2 36.044 2 36.5s0.309 0.854 0.75 0.968L16 40.894V46H5v2h11v2H8v2h8v2h-5v2h5.839l14.845 4.948C31.786 60.982 31.894 61 32 61s0.214-0.018 0.316-0.052l15-5C47.725 55.812 48 55.431 48 55V40.894l10-2.586v14.455l-1.895 3.789c-0.141 0.281-0.141 0.613 0 0.895l2 4C58.275 61.786 58.621 62 59 62s0.725-0.214 0.895-0.553l2-4c0.141-0.281 0.141-0.613 0-0.895L60 52.764V37.791l1.25-0.323C61.691 37.354 62 36.956 62 36.5s-0.309-0.854-0.75-0.968l-10.596-2.741C50.87 32.234 51 31.633 51 31V21h5v-2h-5v-2h8v-2h-8v-2H62zM59 58.764L58.118 57 59 55.236 59.882 57 59 58.764zM24 9c0-2.757 2.243-5 5-5h6c2.757 0 5 2.243 5 5v2h-2V9c0-1.654-1.346-3-3-3h-6c-1.654 0-3 1.346-3 3v2h-2V9zM36 11h-8V9c0-0.552 0.448-1 1-1h6c0.552 0 1 0.448 1 1V11zM15 13h34v4c0 1.654-1.346 3-3 3h-2-4-4v-3c0-0.553-0.447-1-1-1h-6c-0.553 0-1 0.447-1 1v3h-4-4-2c-1.654 0-3-1.346-3-3V13zM49 31c0 0.68-0.236 1.3-0.618 1.804-0.006 0.007-0.015 0.012-0.021 0.02-0.141 0.183-0.3 0.345-0.472 0.488-0.008 0.007-0.016 0.014-0.025 0.02-0.156 0.127-0.324 0.232-0.5 0.325-0.03 0.015-0.058 0.034-0.088 0.048-0.161 0.078-0.33 0.135-0.503 0.182-0.042 0.011-0.081 0.029-0.123 0.038C46.439 33.972 46.222 34 46 34H18c-0.222 0-0.439-0.028-0.651-0.076-0.043-0.009-0.082-0.027-0.123-0.038-0.172-0.047-0.342-0.104-0.502-0.182-0.031-0.014-0.059-0.033-0.089-0.048-0.175-0.092-0.344-0.198-0.499-0.324-0.008-0.007-0.016-0.014-0.025-0.02-0.172-0.143-0.331-0.305-0.472-0.488-0.006-0.008-0.014-0.012-0.021-0.02C15.236 32.3 15 31.68 15 31V20.974C15.838 21.609 16.87 22 18 22h1v3c0 0.553 0.447 1 1 1h4c0.553 0 1-0.447 1-1v-3h4 6 4v3c0 0.553 0.447 1 1 1h4c0.553 0 1-0.447 1-1v-3h1c1.13 0 2.162-0.391 3-1.026V31zM21 22h2v2h-2V22zM34 20h-4v-2h4V20zM41 22h2v2h-2V22zM46 54.279l-14 4.667-14-4.667V41.412l13.75 3.556C31.832 44.989 31.916 45 32 45s0.168-0.011 0.25-0.032L46 41.412V54.279zM32 42.967L6.993 36.5l7.504-1.941c0.457 0.45 0.998 0.811 1.599 1.06 0.111 0.046 0.23 0.069 0.343 0.107 0.19 0.063 0.376 0.134 0.575 0.174C17.335 35.965 17.665 36 18 36h28c0.335 0 0.665-0.035 0.986-0.1 0.199-0.04 0.385-0.112 0.575-0.174 0.114-0.038 0.233-0.061 0.343-0.107 0.601-0.249 1.143-0.61 1.599-1.06l7.504 1.941L32 42.967z" fill="#ffffff" data-fill-palette-color="quaternary"></path></svg></g></svg></g><g><path d="M4.863 99.496l25.68 7.129-0.95 3.423-25.68-7.13z" fill="#1c4b82" data-fill-palette-color="primary"></path><path d="M18.059 69.708l24.095 11.39-1.527 3.229-24.353 3.294 18.633 8.808-1.518 3.211-24.095-11.391 1.517-3.21 24.429-3.314-18.686-8.833z" fill="#1c4b82" data-fill-palette-color="primary"></path><path d="M31.731 51.397l20.785 16.683-2.205 2.747-20.784-16.683zM37.08 44.735l2.239 1.797-12.895 16.064-2.239-1.797z" fill="#1c4b82" data-fill-palette-color="primary"></path><path d="M72.577 44.978l1.856 2.164-10.685 9.163-1.856-2.164zM46.923 35.624l17.349 20.232-2.696 2.312-17.349-20.232zM63.121 36.824l1.863 2.172-9.266 7.945-1.862-2.172zM56.948 27.028l1.869 2.179-10.549 9.046-1.869-2.18z" fill="#1c4b82" data-fill-palette-color="primary"></path><path d="M66.078 21.364l7.71-4.292c1.748-0.973 3.379-1.533 4.892-1.681 1.516-0.142 2.878 0.131 4.085 0.818 1.213 0.684 2.241 1.783 3.084 3.299v0c0.594 1.066 0.918 2.157 0.973 3.271 0.055 1.114-0.149 2.208-0.612 3.283-0.466 1.069-1.176 2.063-2.129 2.983v0l-0.681 0.813-7.229 4.024-1.422-2.472 5.438-3.026c1.113-0.62 1.926-1.332 2.44-2.137 0.514-0.805 0.771-1.639 0.771-2.502 0.006-0.866-0.214-1.701-0.661-2.505v0c-0.753-1.352-1.758-2.212-3.017-2.581-1.253-0.371-2.765-0.064-4.536 0.922v0l-4.607 2.564 11.566 20.779-3.104 1.727zM92.624 37.09l-11.525-7.416 3.243-1.805 11.496 7.18 0.107 0.192z" fill="#1c4b82" data-fill-palette-color="primary"></path><path d="M112.099 2.58l7.816 25.48-3.415 1.047-18.841-15.778 6.044 19.703-3.396 1.042-7.815-25.48 3.395-1.042 18.906 15.821-6.061-19.761z" fill="#1c4b82" data-fill-palette-color="primary"></path><path d="M140.406 19.879v0c-0.057-0.845-0.282-1.549-0.674-2.11-0.392-0.555-1.06-1.041-2.004-1.459-0.944-0.411-2.274-0.802-3.99-1.175v0c-1.337-0.291-2.55-0.64-3.64-1.048-1.084-0.415-2.023-0.906-2.817-1.474-0.8-0.568-1.427-1.241-1.881-2.019-0.46-0.778-0.725-1.682-0.795-2.713v0c-0.094-1.391 0.198-2.657 0.876-3.8 0.672-1.135 1.665-2.064 2.98-2.788 1.309-0.717 2.868-1.136 4.678-1.258v0c2.01-0.136 3.742 0.128 5.198 0.792 1.449 0.671 2.581 1.594 3.396 2.768 0.815 1.175 1.269 2.455 1.362 3.839v0l-3.564 0.241c-0.067-0.998-0.337-1.872-0.809-2.623-0.472-0.75-1.155-1.319-2.05-1.706-0.895-0.387-2.008-0.536-3.339-0.447v0c-1.238 0.084-2.25 0.342-3.036 0.777-0.786 0.434-1.351 0.987-1.693 1.658-0.349 0.672-0.496 1.421-0.44 2.246v0c0.05 0.745 0.308 1.393 0.773 1.943 0.465 0.55 1.172 1.024 2.122 1.421 0.943 0.404 2.154 0.764 3.632 1.079v0c2.047 0.423 3.738 0.964 5.073 1.622 1.341 0.651 2.355 1.462 3.042 2.432 0.681 0.97 1.067 2.144 1.16 3.521v0c0.097 1.437-0.201 2.718-0.893 3.841-0.693 1.123-1.715 2.024-3.067 2.704-1.351 0.68-2.962 1.082-4.831 1.208v0c-1.231 0.083-2.454-0.008-3.669-0.273-1.207-0.259-2.316-0.696-3.327-1.31-1.018-0.62-1.85-1.413-2.497-2.378-0.647-0.966-1.015-2.111-1.104-3.435v0l3.543-0.239c0.062 0.912 0.291 1.685 0.689 2.32 0.397 0.635 0.916 1.145 1.557 1.529 0.634 0.385 1.347 0.651 2.139 0.798 0.799 0.147 1.624 0.191 2.476 0.134v0c1.224-0.083 2.251-0.326 3.079-0.73 0.822-0.403 1.434-0.936 1.838-1.598 0.397-0.662 0.566-1.425 0.507-2.29z" fill="#1c4b82" data-fill-palette-color="primary"></path><path d="M168.998 14.292l-0.388 2.834-14.264-1.951 0.388-2.835zM156.832 1.066l-3.612 26.405-3.519-0.481 3.612-26.406zM173.633 3.364l-3.612 26.406-3.519-0.482 3.612-26.405z" fill="#1c4b82" data-fill-palette-color="primary"></path><path d="M188.648 7.888l-7.964 25.434-3.389-1.061 7.964-25.434z" fill="#1c4b82" data-fill-palette-color="primary"></path><path d="M201.141 31.534l-6.336-3.212 1.29-2.543 6.335 3.212c1.231 0.624 2.326 0.929 3.284 0.913 0.958-0.016 1.788-0.282 2.492-0.8 0.71-0.515 1.291-1.219 1.743-2.111v0c0.413-0.815 0.624-1.673 0.632-2.574 0.014-0.898-0.244-1.761-0.773-2.59-0.529-0.829-1.41-1.556-2.641-2.181v0l-5.622-2.85-10.753 21.211-3.168-1.606 12.052-23.771 8.789 4.455c1.797 0.911 3.157 1.989 4.08 3.236 0.93 1.249 1.44 2.581 1.531 3.995 0.091 1.414-0.223 2.829-0.941 4.245v0c-0.772 1.523-1.752 2.66-2.941 3.411-1.191 0.757-2.55 1.1-4.077 1.028-1.521-0.068-3.18-0.558-4.976-1.468z" fill="#1c4b82" data-fill-palette-color="primary"></path><path d="M241.601 45.285l-23.493 10.797-2.571-2.608 26.13-11.457 1.644 1.668zM229.471 67.61l11.105-23.365 1.639-1.672 1.636 1.66-11.823 25.97zM236.173 60.385l-2.045 2.016-10.528-10.68 2.045-2.016z" fill="#1c4b82" data-fill-palette-color="primary"></path><path d="M248.619 76.409l-3.883-5.948 2.387-1.559 3.883 5.948c0.755 1.156 1.551 1.966 2.388 2.431 0.837 0.465 1.69 0.649 2.559 0.552 0.872-0.092 1.727-0.411 2.565-0.958v0c0.765-0.5 1.376-1.137 1.833-1.913 0.461-0.771 0.669-1.647 0.625-2.63-0.044-0.983-0.444-2.052-1.199-3.208v0l-3.446-5.278-19.912 13.001-1.941-2.974 22.316-14.57 5.387 8.251c1.101 1.687 1.741 3.3 1.918 4.841 0.181 1.546-0.042 2.955-0.67 4.225-0.628 1.27-1.607 2.34-2.936 3.207v0c-1.43 0.933-2.847 1.429-4.251 1.486-1.41 0.06-2.759-0.322-4.046-1.146-1.283-0.819-2.476-2.072-3.577-3.758z" fill="#1c4b82" data-fill-palette-color="primary"></path><path d="M260.072 100.308l-2.557-6.626 2.659-1.027 2.558 6.627c0.497 1.288 1.107 2.247 1.829 2.876 0.722 0.629 1.518 0.987 2.387 1.073 0.872 0.092 1.775-0.042 2.708-0.402v0c0.852-0.329 1.583-0.826 2.192-1.49 0.611-0.658 0.998-1.472 1.159-2.442 0.162-0.97-0.006-2.1-0.503-3.387v0l-2.269-5.88-22.185 8.563-1.279-3.313 24.863-9.597 3.549 9.193c0.725 1.879 1.014 3.591 0.866 5.134-0.145 1.55-0.657 2.881-1.536 3.993-0.879 1.111-2.059 1.953-3.54 2.525v0c-1.593 0.615-3.082 0.804-4.468 0.566-1.392-0.235-2.631-0.89-3.718-1.964-1.084-1.068-1.989-2.542-2.715-4.422z" fill="#1c4b82" data-fill-palette-color="primary"></path><path d="M37.137 178.355l-25.68 7.13-0.95-3.423 25.68-7.129z" fill="#1c4b82" data-fill-palette-color="primary"></path><path d="M48.341 202.788l-24.095 11.39-1.527-3.229 12.912-20.909-18.633 8.808-1.517-3.211 24.095-11.39 1.518 3.21-12.945 20.981 18.687-8.834z" fill="#1c4b82" data-fill-palette-color="primary"></path><path d="M57.852 214.447l-20.784 16.683-2.204-2.747 20.784-16.683zM63.201 221.109l-2.24 1.798-12.894-16.064 2.239-1.798z" fill="#1c4b82" data-fill-palette-color="primary"></path><path d="M63.395 252.541l-1.856 2.164-10.685-9.162 1.856-2.165zM68.726 225.76l-17.348 20.232-2.696-2.312 17.348-20.232zM70.011 241.951l-1.862 2.172-9.266-7.944 1.863-2.173zM78.751 234.356l-1.869 2.18-10.549-9.046 1.869-2.179z" fill="#1c4b82" data-fill-palette-color="primary"></path><path d="M82.367 236.18l7.711 4.291c1.748 0.973 3.084 2.064 4.006 3.272 0.92 1.214 1.405 2.515 1.458 3.903 0.058 1.391-0.335 2.844-1.179 4.359v0c-0.594 1.066-1.349 1.917-2.267 2.551-0.918 0.634-1.955 1.038-3.112 1.21-1.154 0.167-2.373 0.088-3.657-0.238v0l-1.051-0.149-7.229-4.024 1.352-2.511 5.437 3.026c1.113 0.62 2.147 0.936 3.102 0.948 0.955 0.012 1.799-0.208 2.533-0.662 0.74-0.451 1.333-1.079 1.78-1.883v0c0.753-1.352 0.954-2.66 0.604-3.923-0.344-1.26-1.402-2.383-3.174-3.37v0l-4.607-2.564-11.565 20.779-3.103-1.727zM82.99 267.028l0.231-13.702 3.243 1.805-0.045 13.554-0.107 0.192z" fill="#1c4b82" data-fill-palette-color="primary"></path><path d="M121.921 252.209l-7.815 25.48-3.415-1.048-6.754-23.628-6.043 19.703-3.396-1.042 7.816-25.48 3.395 1.042 6.784 23.7 6.062-19.76z" fill="#1c4b82" data-fill-palette-color="primary"></path><path d="M139.978 273.26v0c0.057-0.845-0.071-1.572-0.384-2.182-0.314-0.603-0.91-1.174-1.789-1.715-0.88-0.534-2.145-1.101-3.796-1.7v0c-1.285-0.468-2.441-0.977-3.466-1.528-1.019-0.557-1.883-1.17-2.594-1.84-0.717-0.67-1.248-1.421-1.592-2.253-0.352-0.833-0.492-1.765-0.423-2.796v0c0.094-1.391 0.554-2.606 1.379-3.647 0.819-1.034 1.928-1.822 3.329-2.362 1.393-0.534 2.995-0.74 4.804-0.618v0c2.01 0.136 3.691 0.63 5.044 1.483 1.346 0.86 2.343 1.926 2.993 3.201 0.649 1.274 0.927 2.603 0.833 3.987v0l-3.563-0.241c0.067-0.998-0.082-1.901-0.449-2.708-0.367-0.807-0.967-1.462-1.803-1.966-0.835-0.504-1.918-0.801-3.248-0.892v0c-1.238-0.084-2.275 0.037-3.113 0.362-0.837 0.324-1.471 0.796-1.901 1.416-0.436 0.619-0.682 1.341-0.737 2.166v0c-0.05 0.745 0.118 1.422 0.504 2.029 0.387 0.608 1.024 1.172 1.911 1.694 0.88 0.527 2.032 1.046 3.455 1.556v0c1.972 0.695 3.575 1.458 4.809 2.291 1.241 0.826 2.137 1.765 2.687 2.818 0.544 1.053 0.769 2.268 0.676 3.646v0c-0.097 1.437-0.564 2.666-1.402 3.685-0.838 1.02-1.972 1.775-3.402 2.267-1.43 0.492-3.08 0.674-4.95 0.548v0c-1.231-0.083-2.43-0.338-3.598-0.764-1.162-0.419-2.202-1.001-3.121-1.745-0.925-0.751-1.643-1.648-2.155-2.692-0.511-1.044-0.722-2.228-0.632-3.553v0l3.543 0.24c-0.062 0.912 0.062 1.709 0.37 2.391 0.308 0.683 0.754 1.258 1.338 1.725 0.577 0.467 1.248 0.826 2.013 1.078 0.772 0.253 1.583 0.408 2.435 0.466v0c1.224 0.083 2.274-0.02 3.149-0.309 0.868-0.289 1.547-0.734 2.036-1.337 0.482-0.603 0.752-1.336 0.81-2.201z" fill="#1c4b82" data-fill-palette-color="primary"></path><path d="M167.563 262.032l0.388 2.835-14.264 1.951-0.387-2.835zM152.292 252.559l3.612 26.406-3.518 0.481-3.613-26.405zM169.093 250.261l3.612 26.406-3.518 0.481-3.613-26.406z" fill="#1c4b82" data-fill-palette-color="primary"></path><path d="M178.639 246.958l7.964 25.434-3.389 1.061-7.964-25.434z" fill="#1c4b82" data-fill-palette-color="primary"></path><path d="M200.643 254.295l-6.335 3.212-1.29-2.543 6.336-3.212c1.231-0.624 2.124-1.327 2.677-2.109 0.553-0.782 0.829-1.609 0.827-2.483 0.004-0.877-0.22-1.762-0.672-2.654v0c-0.413-0.815-0.981-1.492-1.703-2.031-0.716-0.542-1.565-0.844-2.546-0.907-0.982-0.063-2.088 0.217-3.32 0.841v0l-5.621 2.85 10.753 21.211-3.168 1.606-12.051-23.772 8.789-4.456c1.797-0.911 3.47-1.371 5.021-1.379 1.557-0.012 2.933 0.364 4.127 1.127 1.194 0.763 2.15 1.852 2.869 3.268v0c0.772 1.523 1.11 2.986 1.013 4.388-0.094 1.408-0.62 2.707-1.58 3.897-0.954 1.186-2.329 2.235-4.126 3.146z" fill="#1c4b82" data-fill-palette-color="primary"></path><path d="M221.082 221.299l11.132 23.336-2.57 2.607-11.831-25.962 1.644-1.668zM243.578 233.107l-23.522-10.768-1.695-1.615 1.636-1.66 26.137 11.449zM236.258 226.509l2.045 2.016-10.528 10.68-2.045-2.015z" fill="#1c4b82" data-fill-palette-color="primary"></path><path d="M247.697 209.8l-3.883 5.948-2.388-1.559 3.884-5.948c0.755-1.156 1.177-2.211 1.265-3.164 0.089-0.954-0.086-1.808-0.524-2.564-0.435-0.762-1.071-1.416-1.908-1.963v0c-0.765-0.5-1.595-0.802-2.49-0.909-0.891-0.112-1.777 0.05-2.659 0.486-0.882 0.436-1.7 1.232-2.455 2.388v0l-3.446 5.277 19.912 13.001-1.941 2.974-22.317-14.57 5.388-8.252c1.101-1.687 2.321-2.921 3.66-3.703 1.343-0.788 2.722-1.15 4.138-1.086 1.416 0.064 2.788 0.53 4.118 1.398v0c1.43 0.933 2.453 2.032 3.07 3.295 0.623 1.267 0.815 2.655 0.578 4.165-0.233 1.504-0.901 3.1-2.002 4.786z" fill="#1c4b82" data-fill-palette-color="primary"></path><path d="M259.045 186.106l-2.558 6.627-2.659-1.027 2.557-6.627c0.497-1.288 0.69-2.408 0.578-3.358-0.112-0.951-0.461-1.751-1.047-2.399-0.584-0.654-1.343-1.162-2.276-1.522v0c-0.852-0.329-1.727-0.452-2.624-0.369-0.895 0.076-1.728 0.42-2.499 1.029-0.772 0.61-1.406 1.559-1.904 2.848v0l-2.269 5.88 22.185 8.563-1.279 3.313-24.864-9.597 3.549-9.193c0.725-1.879 1.661-3.341 2.808-4.386 1.149-1.051 2.423-1.692 3.82-1.924 1.398-0.232 2.837-0.063 4.319 0.508v0c1.593 0.615 2.823 1.476 3.689 2.583 0.873 1.109 1.351 2.427 1.434 3.953 0.085 1.52-0.235 3.22-0.96 5.098z" fill="#1c4b82" data-fill-palette-color="primary"></path><path d="M11.934 143.405c0-1.71 1.386-3.096 3.096-3.096 1.71 0 3.096 1.386 3.096 3.096 0 1.71-1.386 3.096-3.096 3.097-1.71 0-3.096-1.386-3.096-3.097z" fill="#1c4b82" data-fill-palette-color="primary"></path><path d="M264.049 143.405c0-1.71 1.386-3.096 3.096-3.096 1.71 0 3.096 1.386 3.096 3.096 0 1.71-1.386 3.096-3.096 3.097-1.71 0-3.096-1.386-3.096-3.097z" fill="#1c4b82" data-fill-palette-color="primary"></path></g></svg></g></svg></g></svg></g></svg></g><defs></defs></svg><rect width="280" height="280" fill="none" stroke="none" visibility="hidden"></rect></g></svg></g></svg>